<?xml version="1.0" encoding="UTF-8" standalone="no"?>
<!-- Created with Inkscape (http://www.inkscape.org/) -->

<svg
   xmlns:dc="http://purl.org/dc/elements/1.1/"
   xmlns:cc="http://creativecommons.org/ns#"
   xmlns:rdf="http://www.w3.org/1999/02/22-rdf-syntax-ns#"
   xmlns:svg="http://www.w3.org/2000/svg"
   xmlns="http://www.w3.org/2000/svg"
   xmlns:sodipodi="http://sodipodi.sourceforge.net/DTD/sodipodi-0.dtd"
   xmlns:inkscape="http://www.inkscape.org/namespaces/inkscape"
   width="210mm"
   height="297mm"
   id="svg4557"
   version="1.1"
   inkscape:version="0.48.5 r10040"
   sodipodi:docname="n39-minion.svg">
  <defs
     id="defs3" />
  <sodipodi:namedview
     inkscape:document-units="mm"
     id="base"
     pagecolor="#ffffff"
     bordercolor="#666666"
     borderopacity="1.0"
     inkscape:pageopacity="0.0"
     inkscape:pageshadow="2"
     inkscape:zoom="0.81"
     inkscape:cx="228.87916"
     inkscape:cy="447.71257"
     inkscape:current-layer="layer1"
     showgrid="false"
     inkscape:window-width="1436"
     inkscape:window-height="855"
     inkscape:window-x="4"
     inkscape:window-y="0"
     inkscape:window-maximized="1" />
  <metadata
     id="metadata4">
    <rdf:RDF>
      <cc:Work
         rdf:about="">
        <dc:format>image/svg+xml</dc:format>
        <dc:type
           rdf:resource="http://purl.org/dc/dcmitype/StillImage" />
        <dc:title></dc:title>
      </cc:Work>
    </rdf:RDF>
  </metadata>
  <g
     inkscape:label="Layer 1"
     inkscape:groupmode="layer"
     id="layer1">
    <path
       style="fill:#000000"
       d="m 349.69135,1025.4636 c -13.58526,-0.3923 -27.18789,-1.289 -30.22804,-1.9926 -8.65774,-2.0037 -14.97644,-17.5372 -17.54318,-43.12696 -2.5346,-25.26901 -4.69559,-28.96645 -18.78698,-32.14461 -8.77949,-1.98008 -9.35445,-1.71339 -12.37551,5.73932 -1.74252,4.29879 -3.81318,18.34942 -4.60144,31.22376 -1.61349,26.35209 -3.75554,29.69819 -19.01191,29.69819 -4.93686,0 -21.67511,2.2906 -37.19611,5.0903 -28.8436,5.2027 -41.02409,4.842 -50.8882,-1.5072 -12.04803,-7.7548 -6.21561,-26.4619 9.74066,-31.24259 l 9.38609,-2.81212 -0.69931,-24.60445 -0.69935,-24.6044 -22.96259,-13.88355 c -12.62939,-7.63595 -29.7113,-20.27467 -37.95977,-28.08611 -15.47099,-14.65112 -18.797879,-16.24076 -23.709864,-11.32875 -2.945703,2.94568 -17.34998,3.34979 -25.63802,0.71927 -6.006562,-1.90643 -10.931834,-11.79328 -13.01569,-26.12743 -1.468764,-10.103 -0.88959,-12.3349 5.024934,-19.36391 7.573244,-9.00032 9.019698,-7.0706 -16.80098,-22.41409 C 20.618771,802.15303 15.000009,795.071 15.000009,781.00972 c 0,-20.11508 11.471887,-34.99922 55.342461,-71.8037 25.812806,-21.6552 25.973532,-21.84072 24.33873,-28.09222 -1.623216,-6.20717 3.761681,-18.81234 9.86191,-23.0851 4.84892,-3.39632 4.8385,-3.81791 -1.5999,-64.74037 -3.564329,-33.72698 -6.469568,-62.66637 -6.456135,-64.30977 0.01238,-1.64342 -4.178729,-6.87696 -9.315976,-11.63012 C 76.242865,507.23728 71.81108,493.76115 71.81108,470.64206 c 0,-14.06203 0.712389,-16.24026 7.410147,-22.6571 6.09622,-5.84055 7.416712,-9.09778 7.447188,-18.36996 0.0422,-12.81275 9.583558,-45.66501 16.733955,-57.61702 l 4.78284,-7.99461 -6.68673,-22.84793 c -3.677677,-12.56636 -5.917316,-22.84793 -4.97695,-22.84793 2.297566,0 9.02822,15.94072 12.49824,29.60047 l 2.81343,11.07515 4.64046,-5.73073 c 4.56029,-5.63172 4.5453,-5.90762 -0.8682,-15.9698 -3.02976,-5.63146 -12.46511,-17.20649 -20.967464,-25.72227 -17.169419,-17.19654 -17.081463,-20.50979 0.165246,-6.22057 12.675888,10.50227 18.873458,17.91633 25.067718,29.9881 l 4.29746,8.37516 13.81991,-13.81991 c 13.1635,-13.1635 13.66173,-14.11545 10.48965,-20.04256 -3.5274,-6.59099 -14.7548,-11.47879 -27.17852,-11.83201 -9.34804,-0.2658 -10.01327,-4.40658 -0.70487,-4.38772 11.58113,0.0247 24.42775,4.70974 31.04144,11.32346 l 6.33333,6.3333 11.23246,-6.58265 c 10.14347,-5.94446 10.9658,-7.10039 8.48194,-11.92284 -6.55728,-12.73102 -15.96542,-22.33712 -26.56317,-27.12223 -7.44569,-3.36186 -9.92176,-5.45245 -7.15835,-6.04385 7.36639,-1.57653 22.03452,7.30637 29.30332,17.74587 13.59976,19.53202 14.10662,20.0618 16.73314,17.49018 1.71517,-1.67931 1.40059,-7.21444 -0.98271,-17.29032 -4.03082,-17.04113 -4.50013,-24.32402 -1.44584,-22.43636 1.17527,0.72638 3.41644,7.73896 4.98035,15.58358 4.05617,20.34551 5.2101,21.64391 16.05477,18.06486 5.5535,-1.83282 8.92988,-4.51448 8.91548,-7.08105 -0.0322,-5.72535 -12.97831,-27.6295 -20.418,-34.54603 -6.02924,-5.60523 -18.07743,-7.83815 -23.66372,-4.38564 -1.55429,0.9606 -2.826,0.67817 -2.826,-0.62764 0,-1.30579 3.43433,-3.57139 7.63183,-5.03465 5.9326,-2.06812 9.18284,-1.85841 14.59797,0.94186 9.83256,5.08461 21.32374,19.85228 26.37232,33.8919 2.96687,8.2506 5.48519,11.70464 8.10869,11.12158 2.09292,-0.46513 3.42742,-2.44697 2.96554,-4.40409 -2.51858,-10.67164 -3.38848,-39.98894 -1.14541,-38.60266 1.37006,0.84674 3.14435,8.53604 3.94289,17.08732 1.9336,20.70665 3.51952,24.34471 10.03256,23.01434 2.91506,-0.59543 10.5798,-1.76715 17.03281,-2.6038 8.13848,-1.05523 11.73272,-2.66248 11.73272,-5.24668 0,-7.3652 -15.40415,-40.53529 -22.20605,-47.81674 -4.16699,-4.46078 -5.61192,-7.43625 -3.61113,-7.43625 6.4594,0 20.34106,22.38188 28.1739,45.42569 5.15612,15.16908 9.99351,17.77772 9.99351,5.3892 0,-10.69992 7.95704,-28.45771 16.64409,-37.14476 8.62698,-8.62698 10.00013,-6.00874 2.20714,4.20844 -8.20046,10.75135 -13.91114,24.54206 -13.91114,33.59404 0,6.93256 0.4927,7.22617 14.8519,8.85072 16.35436,1.85029 19.72876,0.85891 19.72876,-5.79621 0,-6.8221 16.32414,-37.93804 23.38142,-44.56797 4.66559,-4.38312 6.25914,-4.92473 6.25914,-2.12737 0,2.06404 -2.05889,5.61607 -4.57532,7.8934 -6.21941,5.6285 -23.42207,42.77852 -21.78475,47.0453 0.7236,1.88564 5.82307,4.18997 11.33214,5.12073 5.50908,0.93076 10.74351,1.87516 11.63208,2.0987 0.88855,0.22354 2.94082,-4.03966 4.5606,-9.47376 5.92989,-19.89384 22.37559,-43.22583 30.468,-43.22583 2.71985,0 1.14141,2.88552 -5.06688,9.26269 -8.48473,8.71555 -20.28884,30.71463 -22.06229,41.11703 -1.42281,8.34574 4.82488,6.94232 7.68583,-1.72651 3.76857,-11.41888 17.81919,-27.33248 28.68539,-32.48882 13.54117,-6.42571 12.63891,-3.17789 -2.23739,8.05381 -13.63419,10.29392 -26.66299,30.80123 -22.27421,35.05955 2.16178,2.09751 28.82645,12.73326 29.27642,11.67749 7.08982,-16.63396 43.28206,-47.32467 43.28206,-36.7028 0,1.17799 -4.1682,4.94372 -9.26267,8.3683 -18.04372,12.12921 -31.34361,28.74845 -26.7126,33.37944 0.83957,0.83957 5.3941,-2.45539 10.12117,-7.32218 9.17706,-9.44822 24.16096,-17.78305 29.04355,-16.15553 1.63171,0.5439 -2.03085,4.08847 -8.139,7.87682 -6.10816,3.78834 -14.18158,9.75891 -17.94094,13.26796 l -6.83516,6.38004 13.36142,13.69988 c 13.19484,13.52904 35.0266,46.07475 41.83054,62.35888 3.20538,7.67152 16.89712,21.73732 21.15928,21.73732 0.98212,0 3.15497,9.47044 4.82855,21.04542 2.91742,20.17791 2.79753,21.6528 -2.909,35.78073 -5.73226,14.19165 -5.8768,16.03519 -3.91779,49.96843 1.11876,19.3782 2.09472,53.17642 2.16883,75.1071 0.0998,29.52363 0.93639,40.18163 3.22306,41.05912 2.78409,1.06835 24.49669,-23.97138 56.19278,-64.80353 6.11336,-7.87548 15.43554,-19.47264 20.71596,-25.77145 9.49705,-11.32875 9.5504,-11.50864 4.94008,-16.65701 -4.56854,-5.10171 -4.56768,-5.2594 0.0432,-7.97821 11.16811,-6.58536 21.00564,-17.1167 22.54777,-24.13805 1.39772,-6.36379 -0.11931,-10.19038 -9.50726,-23.97942 -18.73123,-27.51281 -17.678,-43.77424 3.24112,-50.04176 5.43949,-1.62976 9.89007,-3.27946 9.89007,-3.66605 0,-0.38656 -2.27176,-4.55315 -5.04834,-9.25911 -2.87958,-4.88055 -8.98101,-10.29721 -14.20276,-12.60875 -15.45067,-6.83969 -16.42929,-7.73453 -18.6284,-17.03327 -2.25772,-9.54659 0.66249,-27.54034 4.46952,-27.54034 1.22119,0 3.20614,3.89033 4.41099,8.64517 3.89321,15.36419 12.28043,18.46985 24.91765,9.22669 4.10986,-3.00607 4.25478,-4.36959 1.45679,-13.70847 -3.86913,-12.91396 -1.72067,-15.42136 6.57405,-7.67235 10.42493,9.7391 13.34277,17.58258 11.70022,31.45145 -1.30868,11.04978 -0.58938,13.89211 6.38378,25.22493 7.38925,12.00907 7.62983,13.12118 4.02779,18.6186 -2.10698,3.21564 -3.81215,6.71941 -3.78926,7.7861 0.0223,1.06669 2.33097,-1.6349 5.12903,-6.00354 10.53219,-16.44382 31.74016,-23.07251 41.76024,-13.05243 5.97433,5.97433 6.62924,21.67936 1.33126,31.92452 -3.52194,6.81068 -3.4512,6.97872 2.93829,6.97872 8.17794,0 15.49083,8.62056 15.49083,18.26081 0,9.0029 -5.30018,21.99725 -10.84951,26.59951 -2.31253,1.91787 -3.26444,4.14091 -2.11532,4.9401 1.14911,0.79918 6.48145,9.0795 11.84962,18.40068 8.45515,14.68127 11.43597,17.6926 22.2903,22.51838 12.87154,5.72264 20.8157,16.4911 20.8157,28.21607 0,7.04407 -2.73647,6.5197 -11.00274,-2.10847 -6.65043,-6.94154 -7.3234,-7.11875 -13.97417,-3.6795 -3.84298,1.9873 -8.23684,5.94814 -9.76412,8.80192 -2.39943,4.48332 -1.53953,6.45583 6.32574,14.51058 10.54428,10.79833 8.31652,14.34925 -5.40541,8.61584 -16.91087,-7.06579 -20.35135,-12.16843 -19.78507,-29.34353 0.45956,-13.93835 -0.36754,-16.59514 -10.28132,-33.02569 -5.9296,-9.82738 -11.69073,-17.86797 -12.80253,-17.86797 -2.35955,0 -19.13288,30.74601 -21.22345,38.90323 -1.65426,6.45473 -1.11513,6.28839 -9.74576,3.00704 -5.65594,-2.1504 -7.6631,-1.66595 -12.79248,3.08756 -18.87728,17.49393 -62.66199,77.77606 -80.45918,110.77502 -18.69025,34.65483 -27.09614,76.70516 -31.07512,155.45304 -3.24171,64.15643 -11.45268,85.2866 -40.68025,104.68678 -17.95964,11.9209 -31.98419,17.98664 -46.5081,20.11498 -13.50883,1.97965 -14.64416,3.04924 -21.38314,20.14618 l -5.04058,12.78797 10.39628,6.09263 c 17.05491,9.99492 24.09432,21.85242 18.82171,31.70452 -2.60187,4.8615 1.01203,4.7068 -65.24253,2.7934 z M 94.037335,868.14688 c 6.105685,-9.51152 6.188575,-9.54831 6.960865,-3.08757 2.2792,19.06783 13.15652,-5.11174 13.15652,-29.2462 0,-12.51934 -5.90844,-28.43634 -10.55569,-28.43634 -0.95015,0 -6.268113,5.15833 -11.817664,11.46299 -8.352095,9.48849 -10.09009,13.23251 -10.09009,21.73642 0,9.55656 -3.241869,16.20148 -7.904158,16.20148 -1.086817,0 -1.976038,-4.44602 -1.976038,-9.88015 0,-10.58308 -2.273776,-12.19369 -8.468747,-5.99869 -4.511989,4.51202 -4.865919,11 -1.300433,23.8382 2.97201,10.70126 8.077964,14.48447 18.41017,13.64083 5.575196,-0.45525 8.933521,-2.98435 13.585265,-10.23097 z M 491.71904,828.27479 c 0,-22.39879 13.32706,-109.64631 19.48044,-127.5314 11.41537,-33.1794 39.35264,-77.49038 81.04996,-128.55252 8.55899,-10.48125 15.56179,-20.10788 15.56179,-21.39256 0,-1.28467 -5.20036,-4.85322 -11.55638,-7.93011 l -11.55639,-5.59436 -8.51072,9.69659 c -23.07767,26.29328 -76.93383,95.47455 -85.39816,109.69878 -5.26604,8.84951 -16.46506,30.00953 -24.88671,47.02233 l -15.31209,30.93229 1.91194,17.23362 c 1.05155,9.47846 1.96902,29.14213 2.03877,43.69699 l 0.12697,26.46339 15.43779,4.89096 c 18.98719,6.01545 21.61291,6.18141 21.61291,1.366 z M 89.023583,812.9344 c 12.148997,-12.0787 13.973747,-15.03392 12.201307,-19.76038 -3.518892,-9.38372 -14.670223,-7.44274 -21.396058,3.72408 -3.062115,5.08399 -7.964767,12.24896 -10.89481,15.92216 -4.428846,5.55222 -4.792754,7.32268 -2.157708,10.49775 1.743282,2.10049 4.247863,3.81913 5.565708,3.81913 1.317871,0 8.82456,-6.39121 16.681561,-14.20274 z M 75.629158,794.29045 c 2.061922,-5.98452 -2.341604,-10.72988 -15.2596,-16.4441 -5.933896,-2.62485 -10.788891,-5.75272 -10.788891,-6.95084 0,-2.78735 9.513923,-11.47764 16.510408,-15.08107 2.967387,-1.52829 9.226739,-2.7787 13.909698,-2.7787 11.547983,0 20.782307,9.92472 29.773547,31.99964 l 7.08768,17.40127 15.4515,0 c 19.9149,0 30.22972,-2.12851 31.9423,-6.59137 0.75282,-1.96187 2.10769,-22.3623 3.01079,-45.3343 l 1.64198,-41.76726 -7.17546,-2.79014 c -3.94652,-1.53459 -18.29066,-5.97195 -31.87593,-9.8608 l -24.70046,-7.0706 -7.410148,5.33656 c -12.875437,9.27251 -56.563843,47.79241 -65.799399,58.01507 -6.371141,7.05206 -9.35649,13.07863 -10.605889,21.41013 -2.31656,15.44796 3.59879,24.70853 22.446771,35.14052 l 14.283275,7.90556 8.013841,-9.04923 c 4.407626,-4.97707 8.702414,-11.0477 9.543987,-13.49034 z m 25.822492,-15.48204 c 0,-6.34232 -15.008178,-20.83258 -21.57725,-20.83258 -5.474856,0 -22.883595,8.58395 -22.883595,11.28352 0,0.55023 3.612446,2.51043 8.027652,4.35602 4.415206,1.84557 9.334599,4.93177 10.932006,6.85814 3.838825,4.62942 25.501187,3.21503 25.501187,-1.6651 z m 295.17058,-87.41736 c 42.32927,-3.55699 50.01665,-7.40893 75.64319,-37.90294 l 12.04347,-14.33099 -0.008,-32.5999 c -0.01,-51.27239 -4.9184,-138.1255 -8.17987,-144.76027 -3.78589,-7.70161 -13.21095,-14.17946 -23.20609,-15.94954 -7.42899,-1.31562 -8.57692,-0.47774 -18.26227,13.32965 -25.32299,36.10043 -75.50345,51.46864 -120.25845,36.83028 -9.1163,-2.98174 -20.12698,-8.06997 -24.46818,-11.30716 l -7.89311,-5.8858 -7.46772,10.85395 c -9.04092,13.14051 -19.98539,22.64712 -32.00279,27.79836 -11.71299,5.02071 -45.72808,7.18481 -58.36543,3.71332 -17.83003,-4.89796 -41.36271,-20.47704 -49.69837,-32.9013 l -7.70759,-11.48808 -9.58274,7.75028 c -17.439993,14.10501 -18.831295,16.50565 -17.464908,30.13532 0.680968,6.79262 3.106398,31.24609 5.389838,54.34102 2.28343,23.09494 5.44563,52.52799 7.02708,65.40679 l 2.87538,23.41599 12.35024,2.84562 c 6.79262,1.56508 21.11445,5.24542 31.8263,8.17855 30.61157,8.3821 65.97876,14.76817 97.37108,17.5818 86.65252,7.76644 100.60072,8.25899 140.03772,4.94505 z M 283.00008,679.68804 c -4.07557,-0.53686 -17.13972,-3.28044 -29.03142,-6.09681 -20.99982,-4.97347 -21.96951,-5.52261 -33.73548,-19.10424 -9.69629,-11.19257 -12.28287,-16.08627 -12.95937,-24.51855 l -0.84518,-10.53496 59.28112,-1.10666 c 32.60462,-0.60867 80.12214,-1.70001 105.5945,-2.42522 36.13726,-1.02882 46.31338,-0.63929 46.31338,1.77288 0,6.79093 -13.42314,36.73545 -20.09635,44.83118 -6.18055,7.4981 -9.93475,9.27853 -29.00546,13.75578 -20.7933,4.88171 -61.95063,6.53086 -85.51574,3.4266 z m 78.68498,-7.13294 c 21.04524,-5.4208 30.0742,-10.11013 33.36264,-17.32748 2.79286,-6.12965 2.72261,-6.1769 -8.92042,-5.99824 -17.65278,0.27089 -71.51361,-4.12804 -74.70664,-6.10143 -1.538,-0.95056 -4.92038,0.1939 -7.51642,2.54335 -3.95781,3.58177 -7.82188,4.0349 -23.92732,2.8059 -11.21881,-0.85612 -26.35306,-0.20476 -36.38854,1.56624 l -17.18128,3.03195 7.07284,5.56348 c 19.05211,14.98639 92.92098,23.00461 128.20514,13.91623 z M 254.59455,638.98096 c 0,-11.93954 -4.00753,-14.38766 -23.55234,-14.38766 -19.92002,0 -21.20788,1.09952 -15.62908,13.3436 2.22714,4.88806 4.91458,6.31985 12.96775,6.90884 18.0839,1.32261 26.21367,-0.49626 26.21367,-5.86478 z m 48.78342,-1.50548 c 1.69816,-2.1704 3.08756,-6.51254 3.08756,-9.64921 0,-5.58119 -0.53331,-5.70301 -24.96825,-5.70301 l -24.96824,0 1.70139,6.77882 c 2.54872,10.15493 5.60352,12.62122 16.93437,13.67188 14.47855,1.34255 24.60549,-0.48754 28.21317,-5.09848 z m 97.62961,2.5511 c 4.31811,-4.77147 9.92811,-17.99849 8.31702,-19.60956 -0.56162,-0.56161 -9.58008,-0.24552 -20.04104,0.70244 -18.5838,1.68402 -19.11216,1.91687 -23.04055,10.15481 -5.13689,10.77219 -2.24256,12.98884 17.02865,13.04159 10.06551,0.0274 14.88378,-1.13772 17.73592,-4.28928 z m -42.644,-6.1706 c 2.69201,-4.41521 4.89872,-8.86129 4.90378,-9.88018 0.005,-1.0189 -11.17639,-1.85254 -24.84773,-1.85254 l -24.85697,0 0.77402,7.93058 c 0.89425,9.16259 5.473,11.1925 26.1283,11.58358 12.13114,0.22971 13.3326,-0.29265 17.8986,-7.78144 z m 280.34214,-103.43277 10.96984,-22.53873 -4.87686,-6.19991 c -2.68228,-3.40995 -4.87686,-9.38201 -4.87686,-13.27121 0,-4.14275 -3.58041,-12.05499 -8.64516,-19.10478 -4.75484,-6.61837 -8.64517,-13.84585 -8.64517,-16.06101 0,-2.6494 -2.11305,-4.02759 -6.17512,-4.02759 -4.27075,0 -6.17511,-1.354 -6.17511,-4.39048 0,-12.96142 -15.55115,-19.94484 -25.12349,-11.28199 -6.81772,6.16996 -5.50719,12.65425 6.63931,32.85015 7.24238,12.04185 11.07404,21.27169 11.07404,26.67566 0,8.23672 -5.92814,22.78853 -9.32611,22.89286 -0.98402,0.0302 -4.37163,2.04169 -7.52804,4.46997 l -5.73895,4.41506 14.38412,9.59339 c 11.97258,7.98502 29.63436,18.03354 32.37409,18.41892 0.38481,0.0541 5.63605,-10.044 11.66947,-22.44031 z M 237.77985,511.04313 c 16.24881,-6.07945 24.81236,-14.85167 43.10084,-44.15112 0.29294,-0.46931 3.66846,2.60128 7.50113,6.82352 15.39775,16.96293 62.31921,24.01585 94.96129,14.27396 50.36626,-15.03156 73.39559,-63.28944 52.01064,-108.98802 -13.68502,-29.24424 -35.41204,-47.24051 -64.58809,-53.49763 -28.9713,-6.21325 -73.28308,16.07398 -86.58309,43.54818 -2.93054,6.05367 -6.28175,11.00665 -7.44715,11.00665 -1.16538,0 -9.31039,-5.44321 -18.1,-12.09606 -30.64551,-23.1955 -60.8356,-28.3053 -88.86154,-15.04019 -25.93774,12.27675 -48.28961,43.50215 -50.53673,70.5994 -1.48742,17.9361 9.33912,49.32616 21.93396,63.59454 9.35644,10.59971 28.22811,22.18884 45.49715,27.93996 12.54339,4.17734 33.64984,2.52009 51.11159,-4.01319 z M 176.38229,497.5735 c -55.92748,-26.04007 -56.65638,-101.81948 -1.25177,-130.14212 16.55209,-8.46137 45.96706,-8.31013 63.09024,0.32436 44.57964,22.4797 54.4724,80.25168 19.69699,115.0271 -20.8948,20.89476 -55.09919,27.09949 -81.53546,14.79066 z m 52.73528,-19.7848 c 39.4126,-18.35033 38.22444,-71.42648 -2.08183,-92.99773 -7.93544,-4.24693 -31.07114,-3.64809 -41.96454,1.08618 -12.39524,5.38696 -26.0189,21.99576 -28.82162,35.13686 -5.34123,25.04338 5.68805,46.04811 30.41868,57.93083 13.30634,6.39353 27.03743,6.01954 42.44931,-1.15614 z m -33.80415,-21.15857 c -12.9771,-12.97711 1.82531,-35.36003 17.81454,-26.93759 7.57554,3.99048 9.27338,6.96042 9.31816,16.29983 0.0669,13.96007 -17.08551,20.68494 -27.1327,10.63776 z m 141.35115,23.54337 c -13.7428,-4.29163 -30.55458,-17.29892 -38.41081,-29.71849 -22.90704,-36.21279 -8.35899,-85.65554 30.44219,-103.46031 16.36888,-7.51121 46.50897,-7.2543 62.31701,0.53119 14.13627,6.96212 27.53613,19.92856 34.6736,33.55207 7.8542,14.99153 7.72398,47.89565 -0.24883,62.86944 -16.89307,31.72701 -54.29941,46.9916 -88.77316,36.2261 z m 37.98104,-19.77574 c 22.13283,-6.57275 36.54382,-25.59156 36.54382,-48.22848 0,-43.88544 -52.79218,-67.05675 -85.48503,-37.52072 -13.25936,11.97903 -17.17826,20.61009 -17.09675,37.6542 0.0828,17.32203 4.22788,26.11756 17.77172,37.71058 15.36453,13.15146 29.04056,16.09383 48.26624,10.38442 z M 342.16894,435.747 c -7.34347,-7.34346 -7.79863,-16.90185 -1.12276,-23.57772 8.93258,-8.93257 25.08189,-4.57462 27.45976,7.41014 1.53026,7.71262 -2.98874,17.49984 -9.1642,19.84775 -8.94739,3.40179 -10.40275,3.0899 -17.1728,-3.68017 z m 330.42391,56.1152 c 9.89247,-9.409 13.29908,-21.44556 8.25038,-29.15087 -2.19153,-3.34466 -5.77292,-6.0812 -7.95867,-6.0812 -7.15582,0 -20.00486,9.78588 -24.0546,18.32006 -5.06865,10.68142 -5.0089,15.95645 0.24652,21.76361 5.31322,5.87102 14.16225,4.04542 23.51637,-4.8516 z m -15.65387,-41.45424 c 19.85757,-17.94011 13.91612,-44.00535 -7.94839,-34.86978 -10.08359,4.21318 -18.75289,15.73951 -20.65525,27.46233 -2.91114,17.9393 12.5222,21.93608 28.60364,7.40745 z M 113.5692,412.97892 c 0.12795,-1.59252 4.86743,-11.93498 10.53214,-22.98329 19.37738,-37.7932 45.01074,-53.93604 81.49988,-51.32525 18.79085,1.34447 42.15013,11.63772 58.92136,25.96362 l 9.41322,8.04074 5.28467,-8.55075 c 7.31119,-11.82977 27.34195,-29.33665 40.80863,-35.66674 46.61107,-21.90979 91.69377,-6.03101 116.75387,41.12233 7.0673,13.29792 12.30147,20.2607 15.94744,21.21414 2.985,0.78059 5.85517,0.99133 6.37818,0.46835 4.11549,-4.1155 -26.59173,-50.81065 -42.91222,-65.25478 -9.49101,-8.39982 -19.21025,-13.39904 -44.22952,-22.7501 -17.63607,-6.59154 -39.86649,-13.77026 -49.40094,-15.95272 -29.26023,-6.69773 -64.15978,-4.89445 -107.49211,5.55422 -41.86567,10.095 -83.02067,43.03624 -107.41374,85.97598 -8.379611,14.75087 -16.088597,38.81893 -16.088597,50.22986 0,5.77711 0.364183,5.65643 10.882527,-3.60652 5.9854,-5.271 10.98724,-10.88661 11.11521,-12.47909 z"
       id="path4544"
       inkscape:connector-curvature="0"
       sodipodi:nodetypes="sssssssssscccsssssssssssscssssscssscssssscssssscsssssssssssssssssssssssssssssssssssssscsssssssscssssssscssssssssssssssssssssssssssscsssssssssssssssssssssssssscssssssssssssssscsssscssscsscsccssssssssssssscssscsscsssscsssssssscsccssssscsssscsssscsssccsssscsssssssssscsscsssssssssscssssssscsscscsssscssssssssscscscsscssssssssssssssssssssssssssssssssssssssssssssssssssssssssssscsssssssssssss" />
    <g
       id="g5261"
       transform="matrix(0.99939083,0.03489949,-0.03489949,0.99939083,28.337377,-2.0135748)">
      <path
         transform="matrix(0.62800002,0,0,0.62800002,57.824364,269.42912)"
         d="m 520.21277,855.55365 c 0,73.44212 -59.53661,132.97873 -132.97873,132.97873 -73.44212,0 -132.97873,-59.53661 -132.97873,-132.97873 0,-73.44212 59.53661,-132.97873 132.97873,-132.97873 73.44212,0 132.97873,59.53661 132.97873,132.97873 z"
         sodipodi:ry="132.97873"
         sodipodi:rx="132.97873"
         sodipodi:cy="855.55365"
         sodipodi:cx="387.23404"
         id="path5259"
         style="fill:#ffffff;fill-opacity:1;stroke:none"
         sodipodi:type="arc" />
      <g
         style="fill:#000000;fill-opacity:1;stroke:none"
         transform="matrix(0.60744222,0,0,0.60744229,209.95661,715.38869)"
         id="g3972">
        <g
           style="fill:#000000;fill-opacity:1;stroke:none"
           transform="translate(-448.05262,-67.701334)"
           id="g4413">
          <path
             d="m 534.12054,161.88159 0,10.40612 47.25268,0 c -9.52806,9.54312 -19.06966,19.07261 -28.62694,28.58644 l 12.59261,0 c 20.11218,0 36.40116,16.32948 36.40116,36.44165 0,20.11218 -16.28898,36.40117 -36.40116,36.40117 -20.11217,0 -36.44165,-16.28899 -36.44165,-36.40117 l -10.40612,0 c 0,25.8585 20.98928,46.8073 46.84777,46.8073 25.85849,0 46.80728,-20.9488 46.80728,-46.8073 0,-21.99252 -15.15229,-40.48031 -35.59135,-45.51157 l 29.96314,-29.92264 z"
             id="path4996-4-0-4-8-9-7-2-6-0-9-9-2"
             style="color:#000000;fill:#000000;fill-opacity:1;stroke:none;stroke-width:6.83062887;marker:none;visibility:visible;display:inline;overflow:visible;enable-background:accumulate"
             inkscape:connector-curvature="0"
             sodipodi:nodetypes="ccccsssccssccc" />
          <g
             style="fill:#000000;fill-opacity:1;stroke:none"
             transform="matrix(-1,0,0,-1,1130.6373,475.18252)"
             id="g4409">
            <path
               d="m 565.33889,208.68886 c -15.80241,0 -28.62694,12.82454 -28.62694,28.62694 0,12.13086 7.56029,22.4873 18.22083,26.6429 l 0,-11.74231 c -4.72379,-3.28183 -7.81471,-8.71082 -7.81471,-14.90059 0,-10.05608 8.16474,-18.22082 18.22082,-18.22082 10.05608,0 18.18034,8.16474 18.18034,18.22082 0,6.17974 -3.07517,11.61703 -7.77422,14.90059 l 0,11.74231 c 10.64945,-4.1556 18.18033,-14.51204 18.18033,-26.6429 0,-15.8024 -12.78404,-28.62694 -28.58645,-28.62694 z"
               id="path4996-4-0-4-2-1-9-8-5-8-9"
               style="color:#000000;fill:#000000;fill-opacity:1;stroke:none;stroke-width:6.83062887;marker:none;visibility:visible;display:inline;overflow:visible;enable-background:accumulate"
               inkscape:connector-curvature="0" />
            <path
               d="m 565.33889,232.0925 c -2.87317,0 -5.2233,2.35013 -5.2233,5.2233 l 0,31.17786 10.40612,0 0,-31.17786 c 0,-2.87317 -2.30965,-5.2233 -5.18282,-5.2233 z"
               id="rect5023-1-6-7-7-5-2-9-1-8-8"
               style="color:#000000;fill:#000000;fill-opacity:1;stroke:none;stroke-width:6.83062887;marker:none;visibility:visible;display:inline;overflow:visible;enable-background:accumulate"
               inkscape:connector-curvature="0" />
          </g>
          <path
             d="m 630.85289,149.49143 c -5.72232,0.0544 -10.36388,0.85328 -11.49937,1.53864 -2.27103,1.37086 -2.80747,4.65767 -2.10552,5.42576 0.70195,0.76784 11.43046,7.65845 16.11531,9.92023 12.61445,6.09045 -1.28767,29.39594 -12.14722,25.22572 -7.69621,-2.95537 -16.42692,-11.75721 -17.8969,-11.82329 -1.46996,-0.0648 -3.36351,0.9263 -3.84662,3.4822 -0.48303,2.55591 3.00841,14.89689 11.7828,24.49689 10.52926,11.52022 26.92634,-1.20851 26.92634,9.31286 l 0,48.87231 a 13.017768,13.017768 0 0 0 26.03553,0 l 0,-62.4367 0,-14.57666 c 0,-5.46709 6.70282,-27.38877 -15.46745,-36.56312 -5.37441,-2.22388 -12.17459,-2.92922 -17.8969,-2.87484 z"
             id="path5018-1-3-2-1-4-7-5-6"
             style="fill:#000000;fill-opacity:1;stroke:none"
             inkscape:connector-curvature="0" />
        </g>
        <path
           d="m 150,23.121296 c -70.070867,0 -126.878717,56.8078 -126.878717,126.878714 0,70.0708 56.80785,126.87869 126.878717,126.87869 70.07082,0 126.87872,-56.80789 126.87872,-126.87869 C 276.87872,79.929096 220.07082,23.121296 150,23.121296 z m 0,17.3855 c 60.46032,0 109.45402,49.0329 109.45402,109.493214 0,60.4603 -48.9937,109.45399 -109.45402,109.45399 -60.472228,0.3888 -108.645337,-55.93299 -109.493167,-109.45399 0,-60.460314 49.03291,-109.493214 109.493227,-109.493214 z"
           id="path7438-70-0-9-0-2"
           style="color:#000000;fill:#000000;fill-opacity:1;stroke:none;stroke-width:6.83062887;marker:none;visibility:visible;display:inline;overflow:visible;enable-background:accumulate"
           inkscape:connector-curvature="0" />
        <path
           inkscape:connector-curvature="0"
           style="color:#000000;fill:#000000;fill-opacity:1;stroke:none;stroke-width:6.83062887;marker:none;visibility:visible;display:inline;overflow:visible;enable-background:accumulate"
           id="path3981"
           d="m 150,23.121296 c -70.070867,0 -126.878717,56.8078 -126.878717,126.878714 0,70.0708 56.80785,126.87869 126.878717,126.87869 70.07082,0 126.87872,-56.80789 126.87872,-126.87869 C 276.87872,79.929096 220.07082,23.121296 150,23.121296 z m 0,17.3855 c 60.46032,0 109.45402,49.0329 109.45402,109.493214 0,60.4603 -48.9937,109.45399 -109.45402,109.45399 -60.472228,0.3888 -108.645337,-55.93299 -109.493167,-109.45399 0,-60.460314 49.03291,-109.493214 109.493227,-109.493214 z" />
        <path
           d="m 150,23.121296 c -70.070867,0 -126.878717,56.8078 -126.878717,126.878714 0,70.0708 56.80785,126.87869 126.878717,126.87869 70.07082,0 126.87872,-56.80789 126.87872,-126.87869 C 276.87872,79.929096 220.07082,23.121296 150,23.121296 z m 0,17.3855 c 60.46032,0 109.45402,49.0329 109.45402,109.493214 0,60.4603 -48.9937,109.45399 -109.45402,109.45399 -60.472228,0.3888 -108.645337,-55.93299 -109.493167,-109.45399 0,-60.460314 49.03291,-109.493214 109.493227,-109.493214 z"
           id="path3983"
           style="color:#000000;fill:#000000;fill-opacity:1;stroke:none;stroke-width:6.83062887;marker:none;visibility:visible;display:inline;overflow:visible;enable-background:accumulate"
           inkscape:connector-curvature="0" />
      </g>
    </g>
  </g>
</svg>
